<mxfile host="app.diagrams.net" modified="2023-05-22T07:41:11.346Z" agent="Mozilla/5.0 (Windows NT 10.0; Win64; x64) AppleWebKit/537.36 (KHTML, like Gecko) Chrome/113.0.0.0 Safari/537.36" etag="y-41GDcAd0nqyVyGrxSf" version="21.3.2" type="device">
  <diagram name="페이지-1" id="jaO_RZyxnHBLZtBFxT8P">
    <mxGraphModel dx="1366" dy="750" grid="1" gridSize="10" guides="1" tooltips="1" connect="1" arrows="1" fold="1" page="1" pageScale="1" pageWidth="4681" pageHeight="3300" math="0" shadow="0">
      <root>
        <mxCell id="0" />
        <mxCell id="1" parent="0" />
        <mxCell id="vtz37hQ9U0DOif0_Qfma-7" style="edgeStyle=orthogonalEdgeStyle;rounded=0;orthogonalLoop=1;jettySize=auto;html=1;entryX=0;entryY=0.5;entryDx=0;entryDy=0;" edge="1" parent="1" source="vtz37hQ9U0DOif0_Qfma-1" target="vtz37hQ9U0DOif0_Qfma-6">
          <mxGeometry relative="1" as="geometry" />
        </mxCell>
        <mxCell id="vtz37hQ9U0DOif0_Qfma-1" value="관리자(DBA)" style="shape=umlActor;verticalLabelPosition=bottom;verticalAlign=top;html=1;outlineConnect=0;" vertex="1" parent="1">
          <mxGeometry x="370" y="330" width="200" height="290" as="geometry" />
        </mxCell>
        <mxCell id="vtz37hQ9U0DOif0_Qfma-4" value="Storage" style="shape=cylinder3;whiteSpace=wrap;html=1;boundedLbl=1;backgroundOutline=1;size=15;" vertex="1" parent="1">
          <mxGeometry x="1160" y="410" width="110" height="130" as="geometry" />
        </mxCell>
        <mxCell id="vtz37hQ9U0DOif0_Qfma-26" style="edgeStyle=orthogonalEdgeStyle;rounded=0;orthogonalLoop=1;jettySize=auto;html=1;entryX=0;entryY=0.5;entryDx=0;entryDy=0;" edge="1" parent="1" source="vtz37hQ9U0DOif0_Qfma-6" target="vtz37hQ9U0DOif0_Qfma-25">
          <mxGeometry relative="1" as="geometry" />
        </mxCell>
        <mxCell id="vtz37hQ9U0DOif0_Qfma-6" value="Sys 로그인" style="rounded=1;whiteSpace=wrap;html=1;" vertex="1" parent="1">
          <mxGeometry x="680" y="452.5" width="140" height="45" as="geometry" />
        </mxCell>
        <mxCell id="vtz37hQ9U0DOif0_Qfma-12" value="" style="edgeStyle=orthogonalEdgeStyle;rounded=0;orthogonalLoop=1;jettySize=auto;html=1;entryX=0;entryY=0.5;entryDx=0;entryDy=0;entryPerimeter=0;" edge="1" parent="1" source="vtz37hQ9U0DOif0_Qfma-6" target="vtz37hQ9U0DOif0_Qfma-4">
          <mxGeometry relative="1" as="geometry">
            <mxPoint x="820" y="475" as="sourcePoint" />
            <mxPoint x="1160" y="475" as="targetPoint" />
          </mxGeometry>
        </mxCell>
        <mxCell id="vtz37hQ9U0DOif0_Qfma-16" style="edgeStyle=orthogonalEdgeStyle;rounded=0;orthogonalLoop=1;jettySize=auto;html=1;" edge="1" parent="1" source="vtz37hQ9U0DOif0_Qfma-9" target="vtz37hQ9U0DOif0_Qfma-13">
          <mxGeometry relative="1" as="geometry">
            <Array as="points">
              <mxPoint x="990" y="630" />
              <mxPoint x="795" y="630" />
            </Array>
          </mxGeometry>
        </mxCell>
        <mxCell id="vtz37hQ9U0DOif0_Qfma-9" value="DB,User Create&lt;br&gt;DB,User DROP&lt;br&gt;DB Alter" style="rounded=1;whiteSpace=wrap;html=1;" vertex="1" parent="1">
          <mxGeometry x="930" y="435" width="120" height="80" as="geometry" />
        </mxCell>
        <mxCell id="vtz37hQ9U0DOif0_Qfma-18" style="edgeStyle=orthogonalEdgeStyle;rounded=0;orthogonalLoop=1;jettySize=auto;html=1;entryX=0;entryY=0.5;entryDx=0;entryDy=0;" edge="1" parent="1" source="vtz37hQ9U0DOif0_Qfma-13" target="vtz37hQ9U0DOif0_Qfma-17">
          <mxGeometry relative="1" as="geometry" />
        </mxCell>
        <mxCell id="vtz37hQ9U0DOif0_Qfma-13" value="유저(User)" style="shape=umlActor;verticalLabelPosition=bottom;verticalAlign=top;html=1;outlineConnect=0;" vertex="1" parent="1">
          <mxGeometry x="720" y="710" width="150" height="250" as="geometry" />
        </mxCell>
        <mxCell id="vtz37hQ9U0DOif0_Qfma-19" style="edgeStyle=orthogonalEdgeStyle;rounded=0;orthogonalLoop=1;jettySize=auto;html=1;entryX=0.5;entryY=1;entryDx=0;entryDy=0;entryPerimeter=0;" edge="1" parent="1" source="vtz37hQ9U0DOif0_Qfma-17" target="vtz37hQ9U0DOif0_Qfma-4">
          <mxGeometry relative="1" as="geometry" />
        </mxCell>
        <mxCell id="vtz37hQ9U0DOif0_Qfma-17" value="User 로그인" style="rounded=1;whiteSpace=wrap;html=1;" vertex="1" parent="1">
          <mxGeometry x="1000" y="815" width="110" height="40" as="geometry" />
        </mxCell>
        <mxCell id="vtz37hQ9U0DOif0_Qfma-20" value="CREATE&amp;nbsp; :&amp;nbsp; INSERT&lt;br&gt;READ : SELECT&lt;br&gt;UPDATE : UPDATE&lt;br&gt;DELETE : DELETE" style="rounded=1;whiteSpace=wrap;html=1;" vertex="1" parent="1">
          <mxGeometry x="1150" y="805" width="140" height="75" as="geometry" />
        </mxCell>
        <mxCell id="vtz37hQ9U0DOif0_Qfma-23" value="DML&lt;br&gt;(Data Manuplulation Lang)" style="text;html=1;strokeColor=none;fillColor=none;align=center;verticalAlign=middle;whiteSpace=wrap;rounded=0;" vertex="1" parent="1">
          <mxGeometry x="1110" y="750" width="180" height="40" as="geometry" />
        </mxCell>
        <mxCell id="vtz37hQ9U0DOif0_Qfma-24" value="DDL&lt;br&gt;(Data Definition Lang)" style="text;html=1;strokeColor=none;fillColor=none;align=center;verticalAlign=middle;whiteSpace=wrap;rounded=0;" vertex="1" parent="1">
          <mxGeometry x="900" y="380" width="180" height="40" as="geometry" />
        </mxCell>
        <mxCell id="vtz37hQ9U0DOif0_Qfma-27" style="edgeStyle=orthogonalEdgeStyle;rounded=0;orthogonalLoop=1;jettySize=auto;html=1;entryX=0.5;entryY=0;entryDx=0;entryDy=0;entryPerimeter=0;" edge="1" parent="1" source="vtz37hQ9U0DOif0_Qfma-25" target="vtz37hQ9U0DOif0_Qfma-4">
          <mxGeometry relative="1" as="geometry" />
        </mxCell>
        <mxCell id="vtz37hQ9U0DOif0_Qfma-25" value="GRANT, REVOKE&lt;br&gt;COMMIT,&amp;nbsp;ROLL BACK" style="rounded=1;whiteSpace=wrap;html=1;" vertex="1" parent="1">
          <mxGeometry x="910" y="270" width="160" height="60" as="geometry" />
        </mxCell>
        <mxCell id="vtz37hQ9U0DOif0_Qfma-28" value="DCL&lt;br&gt;(Data Control Lang)" style="text;html=1;strokeColor=none;fillColor=none;align=center;verticalAlign=middle;whiteSpace=wrap;rounded=0;" vertex="1" parent="1">
          <mxGeometry x="920" y="210" width="140" height="50" as="geometry" />
        </mxCell>
      </root>
    </mxGraphModel>
  </diagram>
</mxfile>
